<svg xmlns="http://www.w3.org/2000/svg" xmlns:se="http://svg-edit.googlecode.com" xmlns:xlink="http://www.w3.org/1999/xlink" xmlns:dc="http://purl.org/dc/elements/1.1/" xmlns:cc="http://creativecommons.org/ns#" xmlns:rdf="http://www.w3.org/1999/02/22-rdf-syntax-ns#" xmlns:inkscape="http://www.inkscape.org/namespaces/inkscape" width="777" height="480" style="">                                    <title>my vector image</title>                                    <!-- Created with Vector Paint - http://www.vectorpaint.yaks.com/ https://chrome.google.com/webstore/detail/hnbpdiengicdefcjecjbnjnoifekhgdo -->                                    <rect id="backgroundrect" width="100%" height="100%" x="0" y="0" fill="#FFFFFF" stroke="none"/>                                <g class="currentLayer" style=""><title>Layer 1</title><path fill="#000000" fill-opacity="1" stroke="none" stroke-opacity="1" stroke-width="2" stroke-dasharray="none" stroke-linejoin="round" stroke-linecap="butt" stroke-dashoffset="" fill-rule="nonzero" opacity="1" marker-start="" marker-mid="" marker-end="" id="svg_5" d="M685.3956346984286,425.93477554543273 " style="color: rgb(0, 0, 0);"/><g class="selected"><path fill="#4a90d6" fill-opacity="1" stroke="#222222" stroke-opacity="1" stroke-width="2" stroke-dasharray="none" stroke-linejoin="round" stroke-linecap="butt" stroke-dashoffset="" fill-rule="nonzero" opacity="1" marker-start="" marker-mid="" marker-end="" id="svg_3" d="M281.2057246215742,119.60651182294572 " style="color: rgb(0, 0, 0);" class="" transform="rotate(-88.60967254638672 281.2057495117188,119.60650634765628) "/><path fill="#000000" fill-opacity="1" stroke="#ffffff" stroke-opacity="1" stroke-width="2" stroke-dasharray="none" stroke-linejoin="round" stroke-linecap="butt" stroke-dashoffset="" fill-rule="nonzero" opacity="1" marker-start="" marker-mid="" marker-end="" d="M167.09865880012512,206.18299233913422 C167.09865880012512,196.8387694773753 175.31929286540543,189.2699489593506 185.46822381019592,189.2699489593506 C195.61715475498642,189.2699489593506 203.83778882026672,196.8387694773753 203.83778882026672,206.18299233913422 C203.83778882026672,215.52721520089312 195.61715475498642,223.09603571891785 185.46822381019592,223.09603571891785 C175.31929286540543,223.09603571891785 167.09865880012512,215.52721520089312 167.09865880012512,206.18299233913422 z" id="svg_2" class="" transform="rotate(-88.60967254638672 185.46821594238284,206.18298339843753) "/><path fill="#000000" fill-opacity="1" stroke="#ffffff" stroke-opacity="1" stroke-width="2" stroke-dasharray="none" stroke-linejoin="round" stroke-linecap="butt" stroke-dashoffset="" fill-rule="nonzero" opacity="1" marker-start="" marker-mid="" marker-end="" d="M179.08274841308594,178.31338250637054 C179.08274841308594,168.96915964461164 187.30338247836625,161.4003391265869 197.45231342315674,161.4003391265869 C207.60124436794723,161.4003391265869 215.82187843322754,168.96915964461164 215.82187843322754,178.31338250637054 C215.82187843322754,187.65760536812945 207.60124436794723,195.22642588615417 197.45231342315674,195.22642588615417 C187.30338247836625,195.22642588615417 179.08274841308594,187.65760536812945 179.08274841308594,178.31338250637054 z" class="" id="svg_6" transform="rotate(-88.60967254638672 197.4523162841797,178.31338500976562) "/><path fill="#000000" fill-opacity="1" stroke="#ffffff" stroke-opacity="1" stroke-width="2" stroke-dasharray="none" stroke-linejoin="round" stroke-linecap="butt" stroke-dashoffset="" fill-rule="nonzero" opacity="1" marker-start="" marker-mid="" marker-end="" d="M198.0034294128418,200.62686479091644 C198.0034294128418,191.28264192915753 206.2240634781221,183.7138214111328 216.3729944229126,183.7138214111328 C226.5219253677031,183.7138214111328 234.7425594329834,191.28264192915753 234.7425594329834,200.62686479091644 C234.7425594329834,209.97108765267535 226.5219253677031,217.53990817070007 216.3729944229126,217.53990817070007 C206.2240634781221,217.53990817070007 198.0034294128418,209.97108765267535 198.0034294128418,200.62686479091644 z" class="" id="svg_7" transform="rotate(-88.60967254638672 216.37300109863278,200.6268615722656) "/><path fill="#000000" fill-opacity="1" stroke="#ffffff" stroke-opacity="1" stroke-width="2" stroke-dasharray="none" stroke-linejoin="round" stroke-linecap="butt" stroke-dashoffset="" fill-rule="nonzero" opacity="1" marker-start="" marker-mid="" marker-end="" d="M193.46112775802612,159.30882012844086 C193.46112775802612,149.96459726668195 201.68176182330643,142.39577674865723 211.83069276809692,142.39577674865723 C221.97962371288742,142.39577674865723 230.20025777816772,149.96459726668195 230.20025777816772,159.30882012844086 C230.20025777816772,168.65304299019976 221.97962371288742,176.2218635082245 211.83069276809692,176.2218635082245 C201.68176182330643,176.2218635082245 193.46112775802612,168.65304299019976 193.46112775802612,159.30882012844086 z" class="" id="svg_8" transform="rotate(-88.60967254638672 211.83070373535156,159.30882263183594) "/><path fill="#000000" fill-opacity="1" stroke="#ffffff" stroke-opacity="1" stroke-width="2" stroke-dasharray="none" stroke-linejoin="round" stroke-linecap="butt" stroke-dashoffset="" fill-rule="nonzero" opacity="1" marker-start="" marker-mid="" marker-end="" d="M213.36296796798706,185.99523293972015 C213.36296796798706,176.65101007796125 221.58360203326737,169.08218955993652 231.73253297805786,169.08218955993652 C241.88146392284835,169.08218955993652 250.10209798812866,176.65101007796125 250.10209798812866,185.99523293972015 C250.10209798812866,195.33945580147906 241.88146392284835,202.90827631950378 231.73253297805786,202.90827631950378 C221.58360203326737,202.90827631950378 213.36296796798706,195.33945580147906 213.36296796798706,185.99523293972015 z" class="" id="svg_9" transform="rotate(-88.60967254638672 231.73252868652344,185.99522399902344) "/><path fill="#000000" fill-opacity="1" stroke="#ffffff" stroke-opacity="1" stroke-width="2" stroke-dasharray="none" stroke-linejoin="round" stroke-linecap="butt" stroke-dashoffset="" fill-rule="nonzero" opacity="1" marker-start="" marker-mid="" marker-end="" d="M203.1474585533142,132.03581511974335 C203.1474585533142,122.69159225798444 211.36809261859452,115.12277173995972 221.517023563385,115.12277173995972 C231.6659545081755,115.12277173995972 239.8865885734558,122.69159225798444 239.8865885734558,132.03581511974335 C239.8865885734558,141.38003798150226 231.6659545081755,148.94885849952698 221.517023563385,148.94885849952698 C211.36809261859452,148.94885849952698 203.1474585533142,141.38003798150226 203.1474585533142,132.03581511974335 z" class="" id="svg_10" transform="rotate(-88.60967254638672 221.51702880859375,132.0358123779297) "/><path fill="#000000" fill-opacity="1" stroke="#ffffff" stroke-opacity="1" stroke-width="2" stroke-dasharray="none" stroke-linejoin="round" stroke-linecap="butt" stroke-dashoffset="" fill-rule="nonzero" opacity="1" marker-start="" marker-mid="" marker-end="" d="M223.16797280311584,153.83234870433807 C223.16797280311584,144.48812584257917 231.38860686839615,136.91930532455444 241.53753781318665,136.91930532455444 C251.68646875797714,136.91930532455444 259.90710282325745,144.48812584257917 259.90710282325745,153.83234870433807 C259.90710282325745,163.17657156609698 251.68646875797714,170.7453920841217 241.53753781318665,170.7453920841217 C231.38860686839615,170.7453920841217 223.16797280311584,163.17657156609698 223.16797280311584,153.83234870433807 z" class="" id="svg_11" transform="rotate(-88.60967254638672 241.53753662109375,153.8323516845703) "/><path fill="#000000" fill-opacity="1" stroke="#ffffff" stroke-width="2" stroke-dasharray="none" stroke-linejoin="round" stroke-linecap="butt" stroke-dashoffset="" fill-rule="nonzero" opacity="1" marker-start="" marker-mid="" marker-end="" d="M241.4398488998413,180.47918355464935 C241.4398488998413,171.13496069289044 249.66048296512162,163.56614017486572 259.8094139099121,163.56614017486572 C269.9583448547026,163.56614017486572 278.1789789199829,171.13496069289044 278.1789789199829,180.47918355464935 C278.1789789199829,189.82340641640826 269.9583448547026,197.39222693443298 259.8094139099121,197.39222693443298 C249.66048296512162,197.39222693443298 241.4398488998413,189.82340641640826 241.4398488998413,180.47918355464935 z" class="" id="svg_12" stroke-opacity="1" transform="rotate(-88.60967254638672 259.8094177246094,180.47918701171875) "/><path fill="#000000" fill-opacity="1" stroke="none" stroke-width="2" stroke-dasharray="none" stroke-linejoin="round" stroke-linecap="butt" stroke-dashoffset="" fill-rule="nonzero" opacity="1" marker-start="" marker-mid="" marker-end="" id="svg_4" d="M267.2894132268593,134.991945661532 C283.6527528335814,131.79267767620325 306.95103160696186,135.2642237879429 306.9410597724848,135.2152144471978 C306.95103160696186,135.2642237879429 306.4835076181984,143.56870664347701 306.4735357752401,143.51969745337976 C306.4835076181984,143.56870664347701 300.95114041783046,142.68380273264142 289.7305646875067,142.5476636694359 C278.50998895718305,142.41152460623044 236.19906797408737,149.01426917169607 236.1890948561311,148.96526008038427 C236.19906797408737,149.01426917169607 232.1471934048038,140.36943865814828 232.21514087955177,140.32042941001458 C232.1471934048038,140.36943865814828 231.21214542727682,140.0290910001346 242.66648315198228,137.98700505205244 " style="color: rgb(0, 0, 0);" class="" transform="rotate(-25.832895278930664 269.5557250976563,141.30067443847653) "/><path fill="#000000" fill-opacity="1" stroke="#ffffff" stroke-opacity="1" stroke-width="2" stroke-dasharray="none" stroke-linejoin="round" stroke-linecap="butt" stroke-dashoffset="" fill-rule="nonzero" opacity="1" marker-start="" marker-mid="" marker-end="" id="svg_1" d="M276.79767029776474,135.46888610066992 C300.1159605444758,135.46888610066992 305.36598495674684,181.72691527505287 305.3572594411105,181.06080114373032 C305.36598495674684,181.72691527505287 253.47938005105365,135.46888610066992 276.79767029776474,135.46888610066992 z" style="color: rgb(0, 0, 0);" class="" transform="rotate(-19.757083892822266 288.0649108886719,158.26840209960935) "/></g></g></svg>