<?xml version="1.0" standalone="no"?>
<!DOCTYPE svg PUBLIC "-//W3C//DTD SVG 20010904//EN"
 "http://www.w3.org/TR/2001/REC-SVG-20010904/DTD/svg10.dtd">
<svg version="1.0" xmlns="http://www.w3.org/2000/svg"
 width="32.000000pt" height="32.000000pt" viewBox="0 0 32.000000 32.000000"
 preserveAspectRatio="xMidYMid meet">
<metadata>
Created by potrace 1.15, written by Peter Selinger 2001-2017
</metadata>
<g transform="translate(0.000000,32.000000) scale(0.100000,-0.100000)"
fill="#000000" stroke="none">
<path d="M0 193 c0 -69 3 -123 7 -120 3 4 8 19 9 34 2 14 7 29 11 32 17 12 30
57 23 76 -10 27 4 61 27 67 26 7 63 -9 63 -27 0 -22 34 -18 56 8 11 12 31 30
44 39 24 16 20 17 -107 17 l-133 1 0 -127z"/>
<path d="M220 195 c0 -8 8 -15 18 -15 26 0 42 -20 42 -51 0 -33 -12 -42 -52
-41 -23 1 -34 -6 -50 -34 -19 -32 -31 -38 -70 -35 -9 1 -19 -3 -23 -9 -4 -7
33 -10 114 -10 l121 0 0 95 0 95 -31 0 c-17 0 -39 5 -50 10 -15 8 -19 7 -19
-5z"/>
</g>
</svg>
